# xmcd
#
# Track frame offsets: 
#        150
#        12937
#        26797
#        41005
#        54342
#        68370
#        82092
#        94045
#        108697
#        121092
#        136270
#        148755
#        163700
#        177087
#        190767
#        204677
#        217647
#        232242
#        246402
#        258325
#        272000
#        286637
#        298745
#        311015
#        324935
#        337827
#
# Disc length: 4680 seconds
#
# Revision: 1
# Processed by: cddbd v1.5.2PL0 Copyright (c) Steve Scherf et al.
# Submitted via: ExactAudioCopy v1.1
#
DISCID=7712461a
DTITLE=The Carter Family - In The Shadow Of Clinch Mountain  -  CD9
DYEAR=2000
DGENRE=Country
TTITLE0=Are You Lonesome Tonight  (1936)
TTITLE1=Just Another Broken Heart  (1936)
TTITLE2=The Broken Down Tramp  (1937)
TTITLE3=Lover's Lane  (1937)
TTITLE4=Hold Fast To The Right  (1937)
TTITLE5=Lord, I'm In Your Care  (1937)
TTITLE6=Funny When You Feel That Way  (1937)
TTITLE7=In The Shadow Of Clinch Mountain  (1937)
TTITLE8=Hello Stranger  (1937)
TTITLE9=Never Let The Devil Get The Upper Hand Of You  (1937)
TTITLE10=When This Evening Sun Goes Down  (1937)
TTITLE11=Jim Blake's Message  (1937)
TTITLE12=Honey In The Rock  (1937)
TTITLE13=Look How This World Has Made A Change  (1937)
TTITLE14=Little Girl That Played Upon My Knee  (1937)
TTITLE15=You Better Let That Liar Alone  (1937)
TTITLE16=Farewell Nellie  (1937)
TTITLE17=The Only Girl I Ever Cared About  (1937)
TTITLE18=Goodbye To The Plains  (1937)
TTITLE19=My Home's Across The Blue Ridge Mountains  (1937)
TTITLE20=Dark Haired True Lover  (1937)
TTITLE21=He Never Came Back  (1937)
TTITLE22=Happy In Prison  (1938)
TTITLE23=Walking In The King's Highway  (1938)
TTITLE24=St. Regious Girl  (1938)
TTITLE25=Just A Few More Days  (1938)
EXTD=Bear Family CD 15865 LK
EXTT0=10-JUN-1936, New York City
EXTT1=10-JUN-1936, New York City
EXTT2=17-JUN-1937, New York City
EXTT3=17-JUN-1937, New York City
EXTT4=17-JUN-1937, New York City
EXTT5=17-JUN-1937, New York City
EXTT6=17-JUN-1937, New York City
EXTT7=17-JUN-1937, New York City
EXTT8=17-JUN-1937, New York City
EXTT9=17-JUN-1937, New York City
EXTT10=17-JUN-1937, New York City
EXTT11=17-JUN-1937, New York City
EXTT12=17-JUN-1937, New York City
EXTT13=17-JUN-1937, New York City
EXTT14=18-JUN-1937, New York City
EXTT15=18-JUN-1937, New York City
EXTT16=18-JUN-1937, New York City
EXTT17=18-JUN-1937, New York City
EXTT18=18-JUN-1937, New York City
EXTT19=18-JUN-1937, New York City
EXTT20=18-JUN-1937, New York City
EXTT21=18-JUN-1937, New York City
EXTT22=08-JUN-1938, Charlotte
EXTT23=08-JUN-1938, Charlotte
EXTT24=08-JUN-1938, Charlotte
EXTT25=08-JUN-1938, Charlotte
PLAYORDER=
